<svg width="40" height="51" viewBox="0 0 40 51" fill="none" xmlns="http://www.w3.org/2000/svg">
<path d="M39.313 30.8509C39.7743 41.6964 30.5139 50.5065 19.6575 50.5065C8.80111 50.5065 0.00348991 41.7057 0.00348991 30.8509C0.00348991 30.8509 -0.186645 21.4564 2.23991 17.2282C2.23991 17.2282 2.93343 21.6652 6.19221 23.3297C9.451 24.9941 10.3518 26.3111 10.3518 26.3111C10.3518 26.3111 3.48825 12.9985 19.0185 0.934326C19.0185 0.934326 17.4928 7.10435 20.7515 9.5309C24.0103 11.9575 25.1885 16.117 24.8425 19.0984C24.8425 19.0984 28.1013 16.7404 27.2691 11.1954C27.2691 11.1954 31.7762 13.9679 31.5674 28.0425C31.5674 28.0425 36.6278 27.6965 34.8947 19.1685C34.8947 19.1685 38.9499 22.2886 39.313 30.8509Z" fill="#E14B4B"/>
<path d="M9.3418 39.8963C9.3418 39.8963 10.16 50.974 20.6081 50.5969C20.6081 50.5969 29.4197 50.4706 29.987 40.967C29.987 40.967 24.9219 44.8835 24.9703 38.6386C24.978 37.5274 25.2882 36.4443 25.7822 35.4484C26.3479 34.3045 27.0228 32.2645 26.5895 29.5106C26.5895 29.5106 25.3458 34.9248 22.4346 32.28C20.6938 30.6982 20.0127 29.3174 20.7359 23.0273C20.7359 23.0273 18.6226 24.8632 18.0553 29.1101C17.9477 29.9143 17.382 30.6187 16.5903 30.7948C15.8111 30.9678 14.851 30.6421 14.1279 28.6488C14.1279 28.6488 12.4915 31.0301 15.0084 36.8168C15.0084 36.8168 15.7004 39.5815 13.4344 40.7145C11.1683 41.8475 9.3418 39.8963 9.3418 39.8963Z" fill="#FFD83B"/>
</svg>
