<svg width="47" height="47" viewBox="0 0 47 47" fill="none" xmlns="http://www.w3.org/2000/svg">
<path d="M23.5004 47.0008C36.4793 47.0008 47.0008 36.4793 47.0008 23.5004C47.0008 10.5215 36.4793 0 23.5004 0C10.5215 0 0 10.5215 0 23.5004C0 36.4793 10.5215 47.0008 23.5004 47.0008Z" fill="black"/>
<path d="M24.6817 26.2169C24.6692 26.2169 24.6559 26.2161 24.6425 26.2153C24.5432 26.2069 24.4547 26.166 24.3845 26.1059C22.3642 25.6935 20.8081 24.5548 20.1845 23.007C19.5717 21.4885 19.8881 19.7662 21.0744 18.1425V8.51358C21.0744 8.26229 21.2781 8.05859 21.5294 8.05859H29.6164C29.8677 8.05859 30.0714 8.26229 30.0714 8.51358V16.5171C30.0756 16.6999 30.0781 16.8685 30.0806 17.0263C30.1106 18.8563 30.1115 18.8913 32.0725 20.6178L38.4047 26.4215C40.0735 28.0686 39.6561 31.2167 38.1818 32.8288C37.3753 33.6987 36.2366 34.1979 35.0578 34.1979C34.0602 34.1979 33.0901 33.8414 32.3137 33.1836L24.6876 26.2169C24.6867 26.2169 24.6842 26.2169 24.6817 26.2169ZM21.0294 22.6673C21.5077 23.8535 22.6948 24.7527 24.2643 25.1467C24.3912 22.3308 23.5848 20.5084 21.5703 19.0341C20.7764 20.283 20.5819 21.5569 21.0294 22.6673ZM21.9861 12.1568H22.2415V8.96939H21.9861V12.1568ZM24.1533 12.1568V8.96939H23.1515V12.1568H24.1533ZM26.0475 12.1568V8.96939H25.0641V12.1568H26.0475ZM27.9593 12.1568V8.96939H26.9575V12.1568H27.9593ZM28.8701 8.96939V12.1568H29.0704C29.1013 12.1568 29.1322 12.1601 29.1614 12.1659V8.96939H28.8701ZM31.4656 21.2948C29.2716 19.3638 29.2057 19.1167 29.1714 17.0413C29.1689 16.8861 29.1664 16.7183 29.1623 16.5279V13.0584C29.133 13.0642 29.1022 13.0676 29.0713 13.0676H21.9861V18.2101C24.9706 20.3356 25.3179 23.0087 25.1634 25.4163L32.5642 32.1776C33.5685 29.8869 35.34 28.1972 37.8378 27.1486C37.8178 27.1269 37.8002 27.1027 37.7785 27.081L31.4656 21.2948ZM35.0595 33.2871C35.9862 33.2871 36.8811 32.8939 37.5139 32.2119C38.4664 31.1708 38.8922 29.2749 38.3337 27.9208C38.3153 27.9317 38.2978 27.9425 38.2778 27.9509C35.8376 28.951 34.2088 30.533 33.3013 32.7779C33.8264 33.106 34.435 33.2871 35.0595 33.2871Z" fill="url(#paint0_linear)"/>
<path d="M9.65563 19.6702L12.1484 10.3635C12.1793 10.2467 12.2561 10.1473 12.3605 10.0872C12.4648 10.0271 12.5892 10.0104 12.7061 10.0421L20.5193 12.1367C20.7622 12.2018 20.9066 12.4515 20.8415 12.6944C20.5034 13.9566 20.1653 15.2147 19.828 16.4728C19.4741 17.7918 19.1192 19.1109 18.7686 20.4232C18.7285 20.5885 18.691 20.7421 18.6559 20.8857C18.2051 22.7198 18.2051 22.7198 19.6577 24.8979L24.2651 32.1284C24.2693 32.1342 24.2726 32.1409 24.276 32.1467C25.4406 34.1787 24.2217 37.1098 22.396 38.2752C21.7131 38.711 20.925 38.9414 20.1152 38.9414C18.7244 38.9414 17.4254 38.2643 16.6315 37.1156L11.0907 28.4125C11.0657 28.4084 11.0406 28.4017 11.0156 28.3925C10.907 28.3533 10.8236 28.2765 10.7726 28.183C8.94853 27.2663 7.75305 25.7753 7.54935 24.1299C7.34649 22.507 8.0945 20.9275 9.65563 19.6702ZM12.0825 14.127L12.3421 14.1962L13.1794 11.1107L12.9098 11.0381L12.0825 14.127ZM14.1812 14.6888L15.0186 11.6041L14.0594 11.347L13.222 14.4325L14.1812 14.6888ZM16.0212 15.1805L16.8585 12.0966L15.8993 11.8395L15.062 14.9242L16.0212 15.1805ZM17.8603 15.6731L18.6968 12.59L17.7376 12.3329L16.9003 15.4168L17.8603 15.6731ZM19.8439 12.8972L19.5767 12.8255L18.7402 15.9076L18.9348 15.9594C18.9623 15.9669 18.989 15.9778 19.0141 15.9895C19.2904 14.9601 19.5676 13.9299 19.8439 12.8972ZM20.1135 38.0314C20.1135 38.0314 20.1144 38.0314 20.1135 38.0314C20.7488 38.0314 21.3683 37.8503 21.9042 37.508C23.083 36.7558 23.9813 35.0436 23.8018 33.5793C23.7859 33.5826 23.7709 33.5885 23.7551 33.5901C21.1253 33.9249 19.1351 35.0336 17.6758 36.9704C18.2969 37.6407 19.1785 38.0314 20.1135 38.0314ZM17.1232 36.1973C18.6876 34.2421 20.8423 33.0684 23.5388 32.7019C23.523 32.671 23.5079 32.6393 23.4904 32.6084L18.8938 25.3946C17.2709 22.9603 17.2709 22.7023 17.771 20.667C17.8061 20.5251 17.8436 20.3723 17.8854 20.1978C18.1842 19.0792 18.4839 17.9647 18.7828 16.8502C18.7544 16.8477 18.7269 16.8468 18.6985 16.8393L18.1091 16.6815C18.0924 16.679 18.0757 16.679 18.059 16.6748C18.039 16.669 18.0206 16.6607 18.0014 16.6531L16.2708 16.1906C16.2533 16.1881 16.2366 16.1881 16.2191 16.184C16.1982 16.1781 16.1781 16.1698 16.1589 16.1606L14.4342 15.6989C14.4158 15.6964 14.3975 15.6964 14.3799 15.6914C14.3574 15.6856 14.3373 15.6764 14.3165 15.6672L12.5967 15.2072C12.5775 15.2047 12.5592 15.2047 12.5408 15.1997C12.5183 15.1939 12.4965 15.1838 12.4757 15.1747L11.8462 15.006L10.5213 19.9532C12.8438 22.7582 12.4974 25.433 11.7302 27.7271L17.1232 36.1973ZM8.45097 24.0197C8.60708 25.2878 9.52038 26.459 10.9304 27.2413C11.7753 24.5489 11.4672 22.5821 9.91275 20.6503C8.82163 21.6488 8.30404 22.8292 8.45097 24.0197Z" fill="url(#paint1_linear)"/>
<path d="M23.5004 1.24219C11.2076 1.24219 1.24225 11.2075 1.24225 23.5004C1.24225 35.7932 11.2076 45.7586 23.5004 45.7586C35.7933 45.7586 45.7586 35.7932 45.7586 23.5004C45.7586 11.2075 35.7933 1.24219 23.5004 1.24219ZM23.5004 44.6574C11.8154 44.6574 2.34339 35.1846 2.34339 23.5004C2.34339 11.8161 11.8154 2.34249 23.5004 2.34249C35.1855 2.34249 44.6575 11.8153 44.6575 23.5004C44.6575 35.1855 35.1855 44.6574 23.5004 44.6574Z" fill="url(#paint2_linear)"/>
<defs>
<linearGradient id="paint0_linear" x1="0.81649" y1="40.1975" x2="51.826" y2="5.53141" gradientUnits="userSpaceOnUse">
<stop offset="1.38522e-07" stop-color="#E41BFF"/>
<stop offset="0.0701" stop-color="#D22DF8"/>
<stop offset="0.4115" stop-color="#7D81D5"/>
<stop offset="0.6908" stop-color="#3EBEBC"/>
<stop offset="0.8939" stop-color="#18E5AC"/>
<stop offset="1" stop-color="#09F3A6"/>
</linearGradient>
<linearGradient id="paint1_linear" x1="-1.39079" y1="36.9361" x2="49.6125" y2="2.2743" gradientUnits="userSpaceOnUse">
<stop offset="1.38522e-07" stop-color="#E41BFF"/>
<stop offset="0.0701" stop-color="#D22DF8"/>
<stop offset="0.4115" stop-color="#7D81D5"/>
<stop offset="0.6908" stop-color="#3EBEBC"/>
<stop offset="0.8939" stop-color="#18E5AC"/>
<stop offset="1" stop-color="#09F3A6"/>
</linearGradient>
<linearGradient id="paint2_linear" x1="0.225661" y1="39.3176" x2="51.2219" y2="4.66054" gradientUnits="userSpaceOnUse">
<stop offset="0.0475" stop-color="#E41BFF"/>
<stop offset="0.1091" stop-color="#D22DF8"/>
<stop offset="0.4091" stop-color="#7D81D5"/>
<stop offset="0.6546" stop-color="#3EBEBC"/>
<stop offset="0.8331" stop-color="#18E5AC"/>
<stop offset="0.9263" stop-color="#09F3A6"/>
</linearGradient>
</defs>
</svg>
